<?xml version="1.0" encoding="UTF-8"?>
<svg id="point" xmlns="http://www.w3.org/2000/svg" viewBox="0 0 514 514">
  <defs>
    <style>
      .cls-1, .cls-2, .cls-3 {
        stroke-width: 0px;
      }

      .cls-2 {
        fill: red;
      }

      .cls-3 {
        fill: #fff;
      }
    </style>
  </defs>
  <g id="aimblackcircle">
    <g>
      <path class="cls-3" d="M257,489c-61.97,0-120.23-24.13-164.05-67.95S25,318.97,25,257s24.13-120.23,67.95-164.05c43.82-43.82,102.08-67.95,164.05-67.95s120.23,24.13,164.05,67.95,67.95,102.08,67.95,164.05-24.13,120.23-67.95,164.05c-43.82,43.82-102.08,67.95-164.05,67.95Z"/>
      <path class="cls-1" d="M257,50c55.29,0,107.27,21.53,146.37,60.63,39.1,39.1,60.63,91.08,60.63,146.37s-21.53,107.27-60.63,146.37c-39.1,39.1-91.08,60.63-146.37,60.63s-107.27-21.53-146.37-60.63c-39.1-39.1-60.63-91.08-60.63-146.37s21.53-107.27,60.63-146.37c39.1-39.1,91.08-60.63,146.37-60.63M257,0C115.06,0,0,115.06,0,257s115.06,257,257,257,257-115.06,257-257S398.94,0,257,0h0Z"/>
    </g>
  </g>
  <g id="aim">
    <g>
      <path class="cls-1" d="M210.85,452.36c8.43-8.08,15.34-15.74,22.45-25,1.46.38,2.2.55,3.67.87,2.18,11.43,4.89,21.41,8.72,32.4-2.51-.22-3.77-.37-6.27-.72-3.2-10.48-4.33-15.78-5.66-26.31-5.91,8.81-9.3,13.04-16.91,20.96-2.42-.82-3.62-1.26-6-2.2ZM219.72,448.4c.52-1.56.77-2.34,1.29-3.9,7.69,2.54,11.63,3.46,19.56,4.6-.23,1.63-.35,2.44-.58,4.07-8.22-1.18-12.31-2.13-20.27-4.77Z"/>
      <path class="cls-1" d="M257.55,430.33c.09,10.26.17,20.52.26,30.78-2.34.02-3.5,0-5.84-.09.39-10.25.79-20.51,1.18-30.76,1.76.07,2.64.08,4.4.07Z"/>
      <path class="cls-1" d="M283.18,447.56c2.5-8.95,3.35-13.46,4.22-22.37,1.58-.54,2.36-.84,3.92-1.45,3.78,9.54,7.55,19.08,11.33,28.62-2.16.85-3.24,1.25-5.43,2-2.99-8.72-4.49-13.08-7.48-21.81.27.48.4.72.67,1.2-.97,7.71-1.74,11.6-3.88,19.34-1.53.39-2.3.57-3.84.91-5.35-5.78-7.77-8.83-12.06-15.11,0-.72,0-1.08,0-1.79,1.26,9.14,1.89,13.7,3.15,22.84-2.26.31-3.4.44-5.67.65-.93-10.22-1.87-20.44-2.8-30.65,1.64-.15,2.46-.24,4.1-.47,4.75,7.56,7.52,11.21,13.78,18.08Z"/>
    </g>
    <g>
      <path class="cls-1" d="M225.18,89.38c.33-11.64,1.4-21.95,3.43-33.43,1.94-.5,2.92-.73,4.88-1.15,6.93,9.36,12.47,18.07,17.93,28.35-1.89.17-2.84.28-4.72.54-4.83-9.35-7.7-13.91-14.29-22.55-2.02,10.68-2.55,16.04-2.71,26.58-1.82.61-2.73.95-4.52,1.66ZM228.14,81.12c-.52-1.56-.77-2.34-1.29-3.9,7.07-2.34,10.7-3.19,18.01-4.24.23,1.63.35,2.44.58,4.07-7.02,1.01-10.5,1.82-17.3,4.07Z"/>
      <path class="cls-1" d="M260.81,52.01c-.09,10.26-.17,20.52-.26,30.78-1.76-.01-2.64,0-4.4.07-.39-10.25-.79-20.51-1.18-30.76,2.33-.09,3.5-.11,5.84-.09Z"/>
      <path class="cls-1" d="M283.9,75.16c5.89-6.96,9.21-10.26,16.55-16.33,2.1.72,3.14,1.11,5.21,1.93-3.78,9.54-7.55,19.08-11.33,28.62-1.62-.64-2.44-.94-4.09-1.51,2.99-8.72,4.49-13.08,7.48-21.81-.07.55-.11.82-.19,1.37-5.92,5.33-8.63,8.18-13.5,14.12-1.25-.32-1.88-.47-3.13-.75-1.7-7.34-2.84-11.01-5.69-18.26.2-.69.3-1.04.51-1.73-1.26,9.14-1.89,13.7-3.15,22.84-1.7-.23-2.56-.33-4.27-.49.93-10.22,1.87-20.44,2.8-30.65,2.18.2,3.27.32,5.44.62,3.76,8.71,5.23,13.16,7.36,22.02Z"/>
    </g>
  </g>
  <g id="aimredcircle">
    <g>
      <circle class="cls-3" cx="257" cy="257" r="144"/>
      <path class="cls-2" d="M257,138c31.79,0,61.67,12.38,84.15,34.85,22.48,22.48,34.85,52.36,34.85,84.15s-12.38,61.67-34.85,84.15c-22.48,22.48-52.36,34.85-84.15,34.85s-61.67-12.38-84.15-34.85c-22.48-22.48-34.85-52.36-34.85-84.15s12.38-61.67,34.85-84.15c22.48-22.48,52.36-34.85,84.15-34.85M257,88c-93.34,0-169,75.66-169,169s75.66,169,169,169,169-75.66,169-169-75.66-169-169-169h0Z"/>
    </g>
  </g>
  <g id="aimblackdot">
    <g>
      <rect class="cls-3" x="232" y="232" width="50" height="50"/>
      <path class="cls-1" d="M288.78,207h-63.57c-10.06,0-18.22,8.16-18.22,18.22v63.57c0,10.06,8.16,18.22,18.22,18.22h63.57c10.06,0,18.22-8.16,18.22-18.22v-63.57c0-10.06-8.16-18.22-18.22-18.22h0Z"/>
    </g>
  </g>
</svg>