<?xml version="1.0" encoding="UTF-8"?>
<svg xmlns="http://www.w3.org/2000/svg" viewBox="0 0 552 390">
  <defs>
    <style>
      .cls-1 {
        font-family: News706BT-BoldC, 'News706 BT';
        font-size: 50.73px;
        font-weight: 700;
      }

      .cls-2 {
        fill: red;
      }

      .cls-2, .cls-3, .cls-4 {
        stroke-width: 0px;
      }

      .cls-3 {
        fill: #fff;
      }

      .cls-4 {
        fill: #f90;
      }
    </style>
  </defs>
  <g id="billyrectangle">
    <g>
      <rect class="cls-2" x="9" y="9" width="534" height="372" rx="70.84" ry="70.84"/>
      <path class="cls-2" d="M472.16,18c34.1,0,61.84,27.74,61.84,61.84v230.32c0,34.1-27.74,61.84-61.84,61.84H79.84c-34.1,0-61.84-27.74-61.84-61.84V79.84c0-34.1,27.74-61.84,61.84-61.84h392.32M472.16,0H79.84C35.74,0,0,35.74,0,79.84v230.32c0,44.09,35.74,79.84,79.84,79.84h392.32c44.09,0,79.84-35.74,79.84-79.84V79.84c0-44.09-35.74-79.84-79.84-79.84h0Z"/>
    </g>
  </g>
  <g id="billypolygon">
    <g>
      <polygon class="cls-3" points="125.08 196.26 199.44 64.93 350.37 63.67 426.92 193.73 352.56 325.07 201.63 326.33 125.08 196.26"/>
      <path class="cls-4" d="M345.25,72.71l71.29,121.11-69.25,122.29-140.53,1.18-71.29-121.11,69.25-122.29,140.53-1.18M355.49,54.62l-161.31,1.35-79.49,140.38,81.83,139.03,161.31-1.35,79.49-140.38-81.83-139.03h0Z"/>
    </g>
  </g>
  <g id="billybeer">
    <text class="cls-1" transform="translate(152.22 210.7)"><tspan x="0" y="0">Billy Beer</tspan></text>
  </g>
</svg>