<?xml version="1.0" encoding="UTF-8"?>
<svg xmlns="http://www.w3.org/2000/svg" viewBox="0 0 404.46 360.2">
  <defs>
    <style>
      .cls-1 {
        font-family: Papyrus-Regular, Papyrus;
        font-size: 49.27px;
      }

      .cls-2 {
        fill: #fcee21;
      }

      .cls-2, .cls-3, .cls-4 {
        stroke-width: 0px;
      }

      .cls-4 {
        fill: blue;
      }
    </style>
  </defs>
  <g id="fevicolpolygon">
    <g id="polygon">
      <polygon class="cls-4" points="308.04 342.64 395.38 172.66 291.84 12.04 100.97 21.39 13.63 191.37 117.17 351.99 308.04 342.64"/>
      <path class="cls-3" d="M308.04,342.64c25.03-55.32,54.25-118.72,80.35-173.57,0,0,.38,7.84.38,7.84-34.87-50.88-72.62-106.9-106.84-158.5,0,0,10.48,5.39,10.48,5.39,0,0-47.69,2.85-47.69,2.85-45.94,2.65-96.9,5.43-143.12,7.71,0,0,10.92-7.04,10.92-7.04-28.22,54.9-59.51,114.9-88.39,169.44,0,0-.58-11.8-.58-11.8,23.66,37.64,52.33,84.2,75.42,121.91,8.34,13.57,16.54,27.23,24.82,40.84,0,0-7.01-3.6-7.01-3.6,60.59-1.14,130.46-1.52,191.26-1.48h0ZM308.04,342.64c-63.07,6.38-127.27,12.34-190.49,17.23,0,0-4.33.33-4.33.33,0,0-2.69-3.94-2.69-3.94C74.24,303.52,35.56,245.68,0,192.21,29.77,132.44,62.33,68.17,92.83,8.76,159.75,5.54,231.27,2.43,298.22,0c34.02,54.53,70.67,113.53,103.76,168.41,0,0,2.48,4.07,2.48,4.07l-2.09,3.77c-30.23,54.74-62.91,112.51-94.32,166.39h0Z"/>
    </g>
  </g>
  <g id="fevicolrectangle">
    <g id="rectangle">
      <rect class="cls-2" x="93.01" y="70.51" width="221" height="221" rx="79.59" ry="79.59"/>
    </g>
  </g>
  <g id="fevicol">
    <text id="text" class="cls-1" transform="translate(123.95 195.82)"><tspan x="0" y="0">Fevicol</tspan></text>
  </g>
</svg>