<?xml version="1.0" encoding="UTF-8"?>
<svg xmlns="http://www.w3.org/2000/svg" viewBox="0 0 331.31 318">
  <defs>
    <style>
      .cls-1, .cls-2, .cls-3 {
        stroke-width: 0px;
      }

      .cls-2 {
        fill: red;
      }

      .cls-3 {
        fill: #2e3192;
      }
    </style>
  </defs>
  <g id="bluestar">
    <g>
      <polygon class="cls-3" points="115.26 215.27 1.06 201.97 81.08 119.42 58.43 6.71 161.67 57.3 261.87 .93 245.66 114.75 330.22 192.62 216.97 212.38 169.04 316.87 115.26 215.27"/>
      <path class="cls-1" d="M261.23,1.86l-16.03,112.55-.07.52.39.36,83.63,77.01-112,19.53-.52.09-.22.48-47.4,103.33-53.19-100.48-.25-.46-.52-.06L2.13,201.59l79.12-81.63.37-.38-.1-.52L59.12,7.6l102.09,50.03.47.23.46-.26L261.23,1.86M262.51,0l-100.85,56.73L57.75,5.81l22.79,113.45L0,202.35l114.94,13.38,54.13,102.27,48.25-105.18,113.99-19.88-85.12-78.38L262.51,0h0Z"/>
    </g>
  </g>
  <g id="redstar">
    <polygon class="cls-2" points="113.93 76.24 166.21 101.86 216.95 73.32 208.74 130.95 251.56 170.39 194.21 180.39 169.94 233.31 142.7 181.86 84.88 175.12 125.4 133.32 113.93 76.24"/>
  </g>
  <g id="mouth">
    <path class="cls-3" d="M135.77,156.82c3.53,2.26,30.82,19.24,54.68,7.66,3.29-1.6,7.09-4.01,10.87-7.77"/>
  </g>
  <g id="eyes">
    <g>
      <circle class="cls-3" cx="151.97" cy="126.28" r="10.5"/>
      <circle class="cls-3" cx="183.97" cy="126.28" r="10.5"/>
    </g>
  </g>
</svg>